<?xml version="1.0" encoding="utf-8"?>
<svg version="1.1" xmlns:xlink="http://www.w3.org/1999/xlink" width="56px" height="56px" xmlns="http://www.w3.org/2000/svg">
  <g transform="matrix(1 0 0 1 -1177 -356 )">
    <path d="M 56 28  C 56 43.68  43.68 56  28 56  C 12.32 56  0 43.68  0 28  C 0 12.32  12.32 0  28 0  C 43.68 0  56 12.32  56 28  Z M 3.23076923076923 28  C 3.23076923076923 41.8707692307692  14.1292307692308 52.7692307692308  28 52.7692307692308  C 41.8707692307692 52.7692307692308  52.7692307692308 41.8707692307692  52.7692307692308 28  C 52.7692307692308 14.1292307692308  41.8707692307692 3.23076923076923  28 3.23076923076923  C 14.1292307692308 3.23076923076923  3.23076923076923 14.1292307692308  3.23076923076923 28  Z " fill-rule="nonzero" fill="#e6e6e6" stroke="none" transform="matrix(1 0 0 1 1177 356 )" />
  </g>
</svg>