<?xml version="1.0" encoding="utf-8"?>
<svg version="1.1" xmlns:xlink="http://www.w3.org/1999/xlink" width="19px" height="14px" xmlns="http://www.w3.org/2000/svg">
  <g transform="matrix(1 0 0 1 -147 -47 )">
    <path d="M 19 3.10434782608696  C 19 3.34331723027375  18.9253515301902 3.54847020933977  18.7760545905707 3.71980676328502  L 10.0303970223325 13.7429951690821  C 9.88110008271299 13.9143317230274  9.70430107526882 14  9.5 14  C 9.29569892473118 14  9.11889991728702 13.9143317230274  8.96960297766749 13.7429951690821  L 0.22394540942928 3.71980676328502  C 0.0746484698097602 3.54847020933977  0 3.34331723027375  0 3.10434782608696  C 0 2.86537842190016  0.0746484698097602 2.66022544283414  0.22394540942928 2.48888888888889  L 2.18052109181141 0.257004830917874  C 2.32981803143093 0.0856682769726242  2.5066170388751 0  2.71091811414392 0  C 2.91521918941274 0  3.09201819685691 0.0856682769726242  3.24131513647643 0.257004830917874  L 9.5 7.43961352657005  L 15.7586848635236 0.257004830917874  C 15.9079818031431 0.0856682769726242  16.0847808105873 0  16.2890818858561 0  C 16.4933829611249 0  16.6701819685691 0.0856682769726242  16.8194789081886 0.257004830917874  L 18.7760545905707 2.48888888888889  C 18.9253515301902 2.66022544283414  19 2.86537842190016  19 3.10434782608696  Z " fill-rule="nonzero" fill="#dbdbdb" stroke="none" transform="matrix(1 0 0 1 147 47 )" />
  </g>
</svg>