<?xml version="1.0" encoding="utf-8"?>
<svg version="1.1" xmlns:xlink="http://www.w3.org/1999/xlink" width="55px" height="55px" xmlns="http://www.w3.org/2000/svg">
  <g transform="matrix(1 0 0 1 -1290 -5 )">
    <path d="M 1317.5 5  C 1332.9 5  1345 17.1  1345 32.5  C 1345 47.9  1332.9 60  1317.5 60  C 1302.1 60  1290 47.9  1290 32.5  C 1290 17.1  1302.1 5  1317.5 5  Z " fill-rule="nonzero" fill="#ffffff" stroke="none" />
    <path d="M 1317.5 5.5  C 1332.62 5.5  1344.5 17.38  1344.5 32.5  C 1344.5 47.62  1332.62 59.5  1317.5 59.5  C 1302.38 59.5  1290.5 47.62  1290.5 32.5  C 1290.5 17.38  1302.38 5.5  1317.5 5.5  Z " stroke-width="1" stroke="#797979" fill="none" />
  </g>
</svg>