<?xml version="1.0" encoding="utf-8"?>
<svg version="1.1" xmlns:xlink="http://www.w3.org/1999/xlink" width="54px" height="43px" xmlns="http://www.w3.org/2000/svg">
  <g transform="matrix(1 0 0 1 -17 -7 )">
    <path d="M 17 7  L 71 7  L 71 50  L 17 50  L 17 7  " fill-rule="nonzero" fill="#cccccc" stroke="none" />
    <path d="M 20 10  L 68 10  L 68 47  L 20 47  L 20 10  " fill-rule="nonzero" fill="#ffffff" stroke="none" />
    <path d="M 48.305 19.9  C 46.499 19.9  45.08 18.481  45.08 16.675  C 45.08 14.869  46.499 13.45  48.305 13.45  C 50.111 13.45  51.53 14.869  51.53 16.675  C 51.53 18.481  50.111 19.9  48.305 19.9  " fill-rule="nonzero" fill="#cccccc" stroke="none" />
    <path d="M 21 46  L 21 26.75  L 32.5 18  L 48.6 29.2777777777778  L 57.8 23.25  L 67 29.2777777777778  L 67 46  L 21 46  " fill-rule="nonzero" fill="#169bd5" stroke="none" />
  </g>
</svg>