<?xml version="1.0" encoding="utf-8"?>
<svg version="1.1" xmlns:xlink="http://www.w3.org/1999/xlink" width="20px" height="31px" xmlns="http://www.w3.org/2000/svg">
  <g transform="matrix(1 0 0 1 -892 -420 )">
    <path d="M 13.53515625 13.986328125  C 14.51171875 12.9772135416667  15 11.7595486111111  15 10.3333333333333  C 15 8.90711805555555  14.51171875 7.689453125  13.53515625 6.68033854166667  C 12.55859375 5.67122395833333  11.3802083333333 5.16666666666667  10 5.16666666666667  C 8.61979166666667 5.16666666666667  7.44140625 5.67122395833333  6.46484375 6.68033854166667  C 5.48828125 7.689453125  5 8.90711805555555  5 10.3333333333333  C 5 11.7595486111111  5.48828125 12.9772135416667  6.46484375 13.986328125  C 7.44140625 14.9954427083333  8.61979166666667 15.5  10 15.5  C 11.3802083333333 15.5  12.55859375 14.9954427083333  13.53515625 13.986328125  Z M 17.0703125 3.02734375  C 19.0234375 5.04557291666667  20 7.48090277777777  20 10.3333333333333  C 20 11.7999131944444  19.78515625 13.0041232638889  19.35546875 13.9459635416667  L 12.24609375 29.5670572916667  C 12.0377604166667 30.0110677083333  11.728515625 30.3608940972222  11.318359375 30.6165364583333  C 10.908203125 30.8721788194444  10.46875 31  10 31  C 9.53125 31  9.091796875 30.8721788194444  8.681640625 30.6165364583333  C 8.271484375 30.3608940972222  7.96875 30.0110677083333  7.7734375 29.5670572916667  L 0.64453125 13.9459635416667  C 0.21484375 13.0041232638889  0 11.7999131944444  0 10.3333333333333  C 0 7.48090277777777  0.9765625 5.04557291666667  2.9296875 3.02734375  C 4.8828125 1.00911458333333  7.23958333333333 0  10 0  C 12.7604166666667 0  15.1171875 1.00911458333333  17.0703125 3.02734375  Z " fill-rule="nonzero" fill="#868686" stroke="none" transform="matrix(1 0 0 1 892 420 )" />
  </g>
</svg>