<?xml version="1.0" encoding="utf-8"?>
<svg version="1.1" xmlns:xlink="http://www.w3.org/1999/xlink" width="26px" height="18px" xmlns="http://www.w3.org/2000/svg">
  <g transform="matrix(1 0 0 1 -1412 -20 )">
    <path d="M 25.6783854166667 14.6671875  C 25.8927951388888 14.8453125  26 15.05625  26 15.3  L 26 17.1  C 26 17.34375  25.8927951388888 17.5546875  25.6783854166667 17.7328125  C 25.4639756944445 17.9109375  25.2100694444445 18  24.9166666666667 18  L 1.08333333333333 18  C 0.789930555555462 18  0.536024305555462 17.9109375  0.321614583333333 17.7328125  C 0.107204861111205 17.5546875  0 17.34375  0 17.1  L 0 15.3  C 0 15.05625  0.107204861111205 14.8453125  0.321614583333333 14.6671875  C 0.536024305555462 14.4890625  0.789930555555462 14.4  1.08333333333333 14.4  L 24.9166666666667 14.4  C 25.2100694444445 14.4  25.4639756944445 14.4890625  25.6783854166667 14.6671875  Z M 25.6783854166667 7.4671875  C 25.8927951388888 7.6453125  26 7.85625  26 8.1  L 26 9.9  C 26 10.14375  25.8927951388888 10.3546875  25.6783854166667 10.5328125  C 25.4639756944445 10.7109375  25.2100694444445 10.8  24.9166666666667 10.8  L 1.08333333333333 10.8  C 0.789930555555462 10.8  0.536024305555462 10.7109375  0.321614583333333 10.5328125  C 0.107204861111205 10.3546875  0 10.14375  0 9.9  L 0 8.1  C 0 7.85625  0.107204861111205 7.6453125  0.321614583333333 7.4671875  C 0.536024305555462 7.2890625  0.789930555555462 7.2  1.08333333333333 7.2  L 24.9166666666667 7.2  C 25.2100694444445 7.2  25.4639756944445 7.2890625  25.6783854166667 7.4671875  Z M 25.6783854166667 0.267187500000002  C 25.8927951388888 0.4453125  26 0.65625  26 0.900000000000002  L 26 2.7  C 26 2.94375  25.8927951388888 3.1546875  25.6783854166667 3.3328125  C 25.4639756944445 3.5109375  25.2100694444445 3.6  24.9166666666667 3.6  L 1.08333333333333 3.6  C 0.789930555555462 3.6  0.536024305555462 3.5109375  0.321614583333333 3.3328125  C 0.107204861111205 3.1546875  0 2.94375  0 2.7  L 0 0.900000000000002  C 0 0.65625  0.107204861111205 0.4453125  0.321614583333333 0.267187500000002  C 0.536024305555462 0.0890624999999972  0.789930555555462 0  1.08333333333333 0  L 24.9166666666667 0  C 25.2100694444445 0  25.4639756944445 0.0890624999999972  25.6783854166667 0.267187500000002  Z " fill-rule="nonzero" fill="#ffffff" stroke="none" transform="matrix(1 0 0 1 1412 20 )" />
  </g>
</svg>