<?xml version="1.0" encoding="utf-8"?>
<svg version="1.1" xmlns:xlink="http://www.w3.org/1999/xlink" width="223px" height="127px" xmlns="http://www.w3.org/2000/svg">
  <g transform="matrix(1 0 0 1 -812.5 -510.5 )">
    <path d="M 212 123  L 1 0  L 0 24.5  L 27 24.5  L 119 23.697247706422  L 175.921413721414 30.213580270461  L 188 32.5  L 219.5 32.5  L 219.5 74.4770642201835  L 219 98.1743119266055  L 212 123  Z " fill-rule="nonzero" fill="#020051" stroke="none" transform="matrix(1 0 0 1 814 512 )" />
    <path d="M 1 0  L 0 24.5  L 27 24.5  L 119 23.697247706422  L 175.921413721414 30.213580270461  L 188 32.5  L 219.5 32.5  L 219.5 74.4770642201835  L 219 98.1743119266055  L 212 123  " stroke-width="3" stroke="#fb6a43" fill="none" transform="matrix(1 0 0 1 814 512 )" />
  </g>
</svg>