<?xml version="1.0" encoding="utf-8"?>
<svg version="1.1" xmlns:xlink="http://www.w3.org/1999/xlink" width="25px" height="18px" xmlns="http://www.w3.org/2000/svg">
  <g transform="matrix(1 0 0 1 -1378 -20 )">
    <path d="M 24.6907552083333 14.6671875  C 24.8969184027777 14.8453125  25 15.05625  25 15.3  L 25 17.1  C 25 17.34375  24.8969184027777 17.5546875  24.6907552083333 17.7328125  C 24.484592013889 17.9109375  24.240451388889 18  23.9583333333333 18  L 1.04166666666667 18  C 0.759548611111021 18  0.515407986111021 17.9109375  0.309244791666667 17.7328125  C 0.103081597222312 17.5546875  0 17.34375  0 17.1  L 0 15.3  C 0 15.05625  0.103081597222312 14.8453125  0.309244791666667 14.6671875  C 0.515407986111021 14.4890625  0.759548611111021 14.4  1.04166666666667 14.4  L 23.9583333333333 14.4  C 24.240451388889 14.4  24.484592013889 14.4890625  24.6907552083333 14.6671875  Z M 24.6907552083333 7.4671875  C 24.8969184027777 7.6453125  25 7.85625  25 8.1  L 25 9.9  C 25 10.14375  24.8969184027777 10.3546875  24.6907552083333 10.5328125  C 24.484592013889 10.7109375  24.240451388889 10.8  23.9583333333333 10.8  L 1.04166666666667 10.8  C 0.759548611111021 10.8  0.515407986111021 10.7109375  0.309244791666667 10.5328125  C 0.103081597222312 10.3546875  0 10.14375  0 9.9  L 0 8.1  C 0 7.85625  0.103081597222312 7.6453125  0.309244791666667 7.4671875  C 0.515407986111021 7.2890625  0.759548611111021 7.2  1.04166666666667 7.2  L 23.9583333333333 7.2  C 24.240451388889 7.2  24.484592013889 7.2890625  24.6907552083333 7.4671875  Z M 24.6907552083333 0.267187500000002  C 24.8969184027777 0.4453125  25 0.65625  25 0.900000000000002  L 25 2.7  C 25 2.94375  24.8969184027777 3.1546875  24.6907552083333 3.3328125  C 24.484592013889 3.5109375  24.240451388889 3.6  23.9583333333333 3.6  L 1.04166666666667 3.6  C 0.759548611111021 3.6  0.515407986111021 3.5109375  0.309244791666667 3.3328125  C 0.103081597222312 3.1546875  0 2.94375  0 2.7  L 0 0.900000000000002  C 0 0.65625  0.103081597222312 0.4453125  0.309244791666667 0.267187500000002  C 0.515407986111021 0.0890624999999972  0.759548611111021 0  1.04166666666667 0  L 23.9583333333333 0  C 24.240451388889 0  24.484592013889 0.0890624999999972  24.6907552083333 0.267187500000002  Z " fill-rule="nonzero" fill="#ffffff" stroke="none" transform="matrix(1 0 0 1 1378 20 )" />
  </g>
</svg>