<?xml version="1.0" encoding="utf-8"?>
<svg version="1.1" xmlns:xlink="http://www.w3.org/1999/xlink" width="53px" height="52px" xmlns="http://www.w3.org/2000/svg">
  <g transform="matrix(1 0 0 1 -1407 -356 )">
    <path d="M 53 26  C 53 40.56  41.34 52  26.5 52  C 11.66 52  0 40.56  0 26  C 0 11.44  11.66 0  26.5 0  C 41.34 0  53 11.44  53 26  Z M 3.05769230769231 26  C 3.05769230769231 38.88  13.3723076923077 49  26.5 49  C 39.6276923076923 49  49.9423076923077 38.88  49.9423076923077 26  C 49.9423076923077 13.12  39.6276923076923 3  26.5 3  C 13.3723076923077 3  3.05769230769231 13.12  3.05769230769231 26  Z " fill-rule="nonzero" fill="#9280ff" stroke="none" transform="matrix(1 0 0 1 1407 356 )" />
  </g>
</svg>