<?xml version="1.0" encoding="utf-8"?>
<svg version="1.1" xmlns:xlink="http://www.w3.org/1999/xlink" width="41px" height="55px" xmlns="http://www.w3.org/2000/svg">
  <g transform="matrix(1 0 0 1 -1266 -359 )">
    <path d="M 6.92806748181473 54.1511881133442  L 7.69783191471797 51.1067665470903  C 9.60153959322875 51.577648969205  11.6003172178272 51.8269230769231  13.6666666666667 51.8269230769231  C 27.2071794871795 51.8269230769231  37.8461538461538 41.1230769230769  37.8461538461538 27.5  C 37.8461538461538 13.8769230769231  27.2071794871795 3.17307692307692  13.6666666666667 3.17307692307692  C 9.2188245768062 3.17307692307692  5.08406356949155 4.3280406727124  1.53662941730937 6.36205040096143  L 0 3.68430139592795  C 4.15519173571246 1.27067227349235  8.86866453237046 0  13.6666666666667 0  C 28.7624498287083 0  41 12.3121693796532  41 27.5  C 41 42.6878306203468  28.7624498287083 55  13.6666666666667 55  C 11.3941288856352 55  9.13046136897655 54.7148624153376  6.92806748181473 54.1511881133442  Z " fill-rule="nonzero" fill="#fb9e5b" stroke="none" transform="matrix(1 0 0 1 1266 359 )" />
  </g>
</svg>