<?xml version="1.0" encoding="utf-8"?>
<svg version="1.1" xmlns:xlink="http://www.w3.org/1999/xlink" width="260px" height="260px" xmlns="http://www.w3.org/2000/svg">
  <defs>
    <mask fill="white" id="clip145">
      <path d="M 17.416697508023 65  L 30.0751466597592 72.3083590178433  C 20.4598286346404 89.1803023427037  15 108.84562908481  15 130  C 15 194.4  65.6 245  130 245  C 194.4 245  245 194.4  245 130  C 245 65.6  194.4 15  130 15  C 108.845629087644 15  89.1803023479732 20.4598286331774  72.3083594237884 30.0751473499994  L 64.9999999999999 17.416697508023  C 84.7624972796081 6.00681438378203  107.180233751518 0  130 0  C 201.797017478003 0  260 58.2029825219969  260 130  C 260 201.797017478003  201.797017478003 260  130 260  C 58.2029825219969 260  0 201.797017478003  0 130  C 0 107.180233751518  6.006814383782 84.7624972796081  17.416697508023 65  Z " fill-rule="evenodd" />
    </mask>
  </defs>
  <g transform="matrix(1 0 0 1 -19 -135 )">
    <path d="M 17.416697508023 65  L 30.0751466597592 72.3083590178433  C 20.4598286346404 89.1803023427037  15 108.84562908481  15 130  C 15 194.4  65.6 245  130 245  C 194.4 245  245 194.4  245 130  C 245 65.6  194.4 15  130 15  C 108.845629087644 15  89.1803023479732 20.4598286331774  72.3083594237884 30.0751473499994  L 64.9999999999999 17.416697508023  C 84.7624972796081 6.00681438378203  107.180233751518 0  130 0  C 201.797017478003 0  260 58.2029825219969  260 130  C 260 201.797017478003  201.797017478003 260  130 260  C 58.2029825219969 260  0 201.797017478003  0 130  C 0 107.180233751518  6.006814383782 84.7624972796081  17.416697508023 65  Z " fill-rule="nonzero" fill="#f2f2f2" stroke="none" transform="matrix(1 0 0 1 19 135 )" />
    <path d="M 17.416697508023 65  L 30.0751466597592 72.3083590178433  C 20.4598286346404 89.1803023427037  15 108.84562908481  15 130  C 15 194.4  65.6 245  130 245  C 194.4 245  245 194.4  245 130  C 245 65.6  194.4 15  130 15  C 108.845629087644 15  89.1803023479732 20.4598286331774  72.3083594237884 30.0751473499994  L 64.9999999999999 17.416697508023  C 84.7624972796081 6.00681438378203  107.180233751518 0  130 0  C 201.797017478003 0  260 58.2029825219969  260 130  C 260 201.797017478003  201.797017478003 260  130 260  C 58.2029825219969 260  0 201.797017478003  0 130  C 0 107.180233751518  6.006814383782 84.7624972796081  17.416697508023 65  Z " stroke-width="2" stroke="#797979" fill="none" transform="matrix(1 0 0 1 19 135 )" mask="url(#clip145)" />
  </g>
</svg>