<?xml version="1.0" encoding="utf-8"?>
<svg version="1.1" xmlns:xlink="http://www.w3.org/1999/xlink" width="195px" height="260px" xmlns="http://www.w3.org/2000/svg">
  <g transform="matrix(1 0 0 1 -257 -405 )">
    <path d="M 32.9505648525335 255.987434717627  L 36.6116395943903 241.595623677154  C 45.665859040966 243.821613308969  55.1722404262515 245  65 245  C 129.4 245  180 194.4  180 130  C 180 65.6  129.4 15  65 15  C 43.84562908481 15  24.1803023427037 20.4598286346404  7.30835942378849 30.0751473499995  L 0 17.416697508023  C 19.7624972796081 6.00681438378203  42.180233751518 0  65 0  C 136.797017478003 0  195 58.2029825219969  195 130  C 195 201.797017478003  136.797017478003 260  65 260  C 54.1915886024115 260  43.4253650475714 258.652076872505  32.9505648525335 255.987434717627  Z " fill-rule="nonzero" fill="#fb9e5b" stroke="none" transform="matrix(1 0 0 1 257 405 )" />
  </g>
</svg>