<?xml version="1.0" encoding="utf-8"?>
<svg version="1.1" xmlns:xlink="http://www.w3.org/1999/xlink" width="26px" height="26px" xmlns="http://www.w3.org/2000/svg">
  <g transform="matrix(1 0 0 1 -1196 -75 )">
    <path d="M 1209 75  C 1216.28 75  1222 80.72  1222 88  C 1222 95.28  1216.28 101  1209 101  C 1201.72 101  1196 95.28  1196 88  C 1196 80.72  1201.72 75  1209 75  Z " fill-rule="nonzero" fill="#ffffff" stroke="none" />
    <path d="M 1209 75.5  C 1216 75.5  1221.5 81  1221.5 88  C 1221.5 95  1216 100.5  1209 100.5  C 1202 100.5  1196.5 95  1196.5 88  C 1196.5 81  1202 75.5  1209 75.5  Z " stroke-width="1" stroke="#4786df" fill="none" />
  </g>
</svg>