<?xml version="1.0" encoding="utf-8"?>
<svg version="1.1" xmlns:xlink="http://www.w3.org/1999/xlink" width="55px" height="55px" xmlns="http://www.w3.org/2000/svg">
  <g transform="matrix(1 0 0 1 -1225 -374 )">
    <path d="M 55 27.5  C 55 42.9  42.9 55  27.5 55  C 12.1 55  0 42.9  0 27.5  C 0 12.1  12.1 0  27.5 0  C 42.9 0  55 12.1  55 27.5  Z M 3.17307692307692 27.5  C 3.17307692307692 41.1230769230769  13.8769230769231 51.8269230769231  27.5 51.8269230769231  C 41.1230769230769 51.8269230769231  51.8269230769231 41.1230769230769  51.8269230769231 27.5  C 51.8269230769231 13.8769230769231  41.1230769230769 3.17307692307692  27.5 3.17307692307692  C 13.8769230769231 3.17307692307692  3.17307692307692 13.8769230769231  3.17307692307692 27.5  Z " fill-rule="nonzero" fill="#e6e6e6" stroke="none" transform="matrix(1 0 0 1 1225 374 )" />
  </g>
</svg>