<?xml version="1.0" encoding="utf-8"?>
<svg version="1.1" xmlns:xlink="http://www.w3.org/1999/xlink" width="26px" height="26px" xmlns="http://www.w3.org/2000/svg">
  <g transform="matrix(1 0 0 1 -1238 -74 )">
    <path d="M 1251 74  C 1258.28 74  1264 79.72  1264 87  C 1264 94.28  1258.28 100  1251 100  C 1243.72 100  1238 94.28  1238 87  C 1238 79.72  1243.72 74  1251 74  Z " fill-rule="nonzero" fill="#ffffff" stroke="none" />
    <path d="M 1251 74.5  C 1258 74.5  1263.5 80  1263.5 87  C 1263.5 94  1258 99.5  1251 99.5  C 1244 99.5  1238.5 94  1238.5 87  C 1238.5 80  1244 74.5  1251 74.5  Z " stroke-width="1" stroke="#4786df" fill="none" />
  </g>
</svg>